<?xml version="1.0" encoding="UTF-8"?>
<svg id="Layer_3" data-name="Layer 3" xmlns="http://www.w3.org/2000/svg" viewBox="0 0 918.23 714.51">
  <defs>
    <style>
      .cls-1 {
        fill: #ecbd23;
      }
    </style>
  </defs>
  <path class="cls-1" d="M776.63,263.79h-382.51l94.73-106.09c34.82-38.99,31.43-98.83-7.56-133.65h0c-38.99-34.82-98.83-31.43-133.65,7.56L114.22,293.02c-16.41,18.38-24.33,41.4-24.04,64.24,0,.27,0,.53,0,.8,0,.13,0,.26,0,.39h0c0,.52.03,1.03.04,1.55.01.93.03,1.86.07,2.79.03.7.08,1.39.13,2.08.06.85.11,1.71.19,2.56.07.76.16,1.52.25,2.27.09.77.18,1.54.29,2.31.12.81.25,1.61.39,2.42.12.71.24,1.42.38,2.12.16.83.34,1.66.52,2.49.15.68.3,1.35.47,2.03.2.83.42,1.65.64,2.47.18.67.37,1.35.57,2.02.24.8.49,1.59.75,2.38.23.69.46,1.38.7,2.06.27.75.54,1.5.83,2.24.27.71.55,1.42.84,2.13.29.7.59,1.4.89,2.09.32.73.65,1.46.99,2.18.31.66.63,1.32.96,1.97.36.73.73,1.46,1.12,2.18.34.64.69,1.28,1.05,1.91.4.71.8,1.42,1.22,2.12.39.65.78,1.29,1.18,1.92.42.66.83,1.32,1.27,1.98.45.68.91,1.34,1.38,2.01.42.59.83,1.19,1.26,1.78.53.72,1.08,1.42,1.63,2.13.4.52.8,1.04,1.22,1.55.61.76,1.25,1.49,1.89,2.23.32.36.61.74.93,1.1l233.41,261.41c34.82,38.99,94.66,42.38,133.65,7.56h0c38.99-34.82,42.38-94.66,7.56-133.65l-92.6-103.71h380.38c52.28,0,94.66-42.38,94.66-94.66h0c0-52.28-42.38-94.66-94.66-94.66Z"/>
</svg>